<?xml version="1.0" encoding="UTF-8"?>
<svg xmlns="http://www.w3.org/2000/svg" xmlns:xlink="http://www.w3.org/1999/xlink" viewBox="0 0 48 48" width="48px" height="48px">
<g id="surface75152473">
<path style=" stroke:none;fill-rule:nonzero;fill:rgb(0%,78.431374%,32.549021%);fill-opacity:1;" d="M 4 23 C 4 11.953125 12.953125 3 24 3 C 35.046875 3 44 11.953125 44 23 L 24 25 Z M 4 23 "/>
<path style=" stroke:none;fill-rule:nonzero;fill:rgb(0%,90.196079%,46.27451%);fill-opacity:1;" d="M 44 23 C 44 34.046875 35.046875 43 24 43 C 12.953125 43 4 34.046875 4 23 Z M 44 23 "/>
<path style=" stroke:none;fill-rule:nonzero;fill:rgb(76.078433%,91.764706%,99.215686%);fill-opacity:1;" d="M 39.289062 42.339844 L 39.289062 45.5 C 39.289062 45.691406 39.191406 45.851562 39.039062 45.929688 C 38.898438 46.019531 38.710938 46.03125 38.539062 45.929688 L 35.820312 44.339844 L 31.140625 36.191406 L 29.140625 32.71875 L 25.390625 26.199219 L 28.320312 23.269531 L 32.308594 30.210938 L 34.378906 33.808594 Z M 39.289062 42.339844 "/>
<path style=" stroke:none;fill-rule:nonzero;fill:rgb(60.392159%,86.666667%,98.431373%);fill-opacity:1;" d="M 31.230469 28.335938 C 30.417969 29.4375 29.363281 30.347656 28.140625 30.984375 L 32.128906 37.925781 C 33.316406 37.277344 34.402344 36.476562 35.394531 35.578125 Z M 31.230469 28.335938 "/>
<path style=" stroke:none;fill-rule:nonzero;fill:rgb(76.078433%,91.764706%,99.215686%);fill-opacity:1;" d="M 39 23 C 39 27.238281 37.230469 31.078125 34.378906 33.808594 C 33.421875 34.738281 32.328125 35.539062 31.140625 36.191406 C 29.019531 37.339844 26.589844 38 24 38 C 21.46875 38 19.039062 37.378906 16.859375 36.191406 L 12.179688 44.339844 L 9.460938 45.929688 C 9.289062 46.03125 9.101562 46.019531 8.960938 45.929688 C 8.808594 45.851562 8.710938 45.691406 8.710938 45.5 L 8.710938 42.339844 L 19.679688 23.269531 L 22.609375 26.199219 L 18.859375 32.730469 C 20.429688 33.558594 22.179688 34 24 34 C 25.859375 34 27.609375 33.539062 29.140625 32.71875 C 30.351562 32.089844 31.421875 31.230469 32.308594 30.210938 C 33.988281 28.269531 35 25.761719 35 23 Z M 39 23 "/>
<path style=" stroke:none;fill-rule:nonzero;fill:rgb(21.568628%,27.843139%,30.980393%);fill-opacity:1;" d="M 28.5 13 L 26 13 L 26 10 L 22 10 L 22 13 L 19.5 13 C 18.671875 13 18 13.671875 18 14.5 L 18 23 L 22.933594 27.933594 C 23.523438 28.523438 24.476562 28.523438 25.066406 27.933594 L 30 23 L 30 14.5 C 30 13.671875 29.328125 13 28.5 13 Z M 24 22 C 22.617188 22 21.5 20.882812 21.5 19.5 C 21.5 18.117188 22.617188 17 24 17 C 25.382812 17 26.5 18.117188 26.5 19.5 C 26.5 20.882812 25.382812 22 24 22 Z M 24 22 "/>
</g>
</svg>
